M48
;Layer_Color=9474304
;FILE_FORMAT=2:5
INCH,LZ
;TYPE=PLATED
T1F00S00C0.01181
T2F00S00C0.01575
T3F00S00C0.01968
T4F00S00C0.02362
T5F00S00C0.03150
T6F00S00C0.03543
T7F00S00C0.03740
T8F00S00C0.03937
T9F00S00C0.05906
T10F00S00C0.12992
%
T01
X-0122434Y001594
X-0094875
Y002972
X-0108654
X-01065Y0043
X-0111Y00525
X-0113Y00565
X-0111Y0062
X-0122434Y0057279
X-0039756Y001594
X-0025977
X-0012197Y002972
X-0149993Y001594
X-0163772
X-0177552
X-0191331
X-0205111
Y002972
X-021889
Y0043499
Y0057279
X-023267
Y0043499
Y002972
Y001594
X-021889
X-0246449
Y002972
Y0043499
Y0057279
X-0260229
Y0043499
Y002972
Y001594
X-0274008
Y002972
Y0043499
Y0057279
X-01515Y0044
X-0287788Y0043499
Y0057279
Y002972
Y0071058
Y0084838
Y0098617
Y0112397
Y0126177
Y0139956
Y0153736
Y0195074
X-0283Y01935
X-0274008Y0153736
Y0139956
Y0126177
X-0260229
X-0246449
X-023267
X-021889
Y0112397
Y0098617
Y0084838
Y0071058
X-023267
Y0084838
Y0098617
Y0112397
X-0246449
Y0098617
Y0084838
Y0071058
X-0260229
Y0084838
Y0098617
Y0112397
X-0274008
Y0098617
Y0084838
Y0071058
X-017Y0073
X-01675Y0087
X-0177552Y0084838
Y0112397
X-0155Y013
X-0136213Y0139956
Y0153736
X-0132834Y0160166
Y0165166
X-01395Y0175
X-015225Y016275
X-01592Y01923
X-0177552Y0195074
X-0191331
Y0208854
X-0205111
Y0181295
Y0167515
X-0191331
X-0205111Y0153736
X-023267Y0208854
X-02445Y02135
X-0163Y0214
X-01539
X-01448
X-01357
X-01406Y0208
X-01365Y0117
X-01392Y00965
X-01452Y00986
X-01517Y00928
X-01315Y0065
X-0123894Y0075106
X-01185Y0075
X-01225Y00855
X-011Y00665
X-00985Y0069
X-0091Y0078
X-0082Y00675
X-0071Y00825
X-00665Y0079
X-00605Y0082
X-0053536Y0084838
X-0039756
X-00435Y01035
X-0025977Y0098617
X-0012197Y0112397
X-000505Y01465
X-00435Y0147
X-00501Y01358
X-0067316Y0139956
Y0112397
X-0081095
X-00865Y00995
X-01205Y0124
X-01225Y0148
X-0123Y01797
X-01215Y01955
X-01085Y0196
X-00955Y01955
X-00902Y02148
X-0101Y02155
X-01084Y02166
X-01175Y02145
X-01266Y02151
X-00807Y02062
X-00645Y01945
X-0058Y0201
X-01055Y0177
X-0012197Y0071058
Y0222633
X-0025977
Y0236413
X-0039756Y0222633
X-0177552Y0236413
X-021889
X-023267
X-0274008
X-0287788Y0222633
T02
X-0129921Y0001969
X-0125984
X-0122047
X-011811
X-0114173
X-0110236
X-0106299
X-0102362
X-0098425
X-0094488
X-0090551
X-0086614
X-0082677
X-007874
X-0074803
X-0070866
X-0066929
X-0062992
X-0060039Y0004921
Y0008858
X-0063976
X-0067913
X-0069882Y0014764
X-0068898Y0023622
X-0063976
X-0060039
Y0027559
Y0031496
Y0035433
Y003937
X-0064961Y0040354
X-0065945Y0044291
Y0048228
X-00624Y00549
X-00663Y0059
X-00795Y00566
X-0084057Y0058457
X-00413Y00522
X-00313Y00618
X-00242Y00359
X-00181Y00385
X-0025947Y0023354
X-004626Y0023622
X-0050197
Y0027559
Y0031496
X-0044291Y0020669
Y0016732
Y0012795
X-004626Y0008858
X-0050197
Y0004921
X-0047244Y0001969
X-0043307
X-003937
X-0035433
X-0031496
X-0027559
X-0023622
X-0019685
X-0015748
X-0011811
X-0007874
X-0003937
X-0133858
X-0137795
X-0141732
X-0145669
X-0149606
X-0153543
X-015748
X-0161417
X-0165354
X-0169291
X-0173228
X-0177165
X-0181102
X-0185039
X-0188976
X-0192913
X-019685
X-0200787
X-0204724
X-0208661
X-0212598
X-0216535
X-0220472
X-022441
X-0228346
X-0232283
X-0236221
X-0240158
X-0244094
X-0248031
X-0251969
X-0255906
X-0259842
X-0263779
X-0267717
X-0271654
X-027559
X-0279528
X-0283465
X-0287402
X-0291339
X-0295276
X-0299213
X-0248969Y0157913
Y016185
X-0245031
Y0157913
X-0241094
Y016185
Y0165787
Y0169724
Y0173661
X-0245031
X-0237158
Y0169724
Y0165787
Y0157913
X-0248969Y0165787
X-0063747Y0071547
T03
X-01165Y0061
X-0209653Y0161653
X-028648Y021352
X-0054357Y0111742
X-0039257
T04
X-0117362Y0022343
X-0136575
X-01403Y01468
X-01503
X-01603
X-01703
T05
X-028324Y0158862
X-027324
Y0168862
X-028324
T06
X-00797Y00163
Y00263
Y00363
Y00463
X-016Y005
Y004
Y0073
Y0083
Y0093
Y0103
X-0128Y0234
X-0118
X-0108
X-0098
X-0088
X-0078
X-0068
X-0058
X-0048
X-0038
Y0244
X-0048
X-0058
X-0068
X-0078
X-0088
X-0098
X-0108
X-0118
X-0128
X-0138
Y0234
X-0148
Y0244
X-0158
Y0234
T07
X-0209Y018911
Y020289
T08
X-0260842Y023585
X-0251
X-0241158
T09
X-0281716Y0043362
Y0138638
X-0016Y0169
Y0189
Y0209
X-0185843Y0233
X-0205842
T10
X-0012Y0015
X-0286Y0017
X-0013Y0236
X-0289
M30
