G04 Layer_Color=16711935*
%FSLAX25Y25*%
%MOIN*%
G70*
G01*
G75*
%ADD88C,0.20485*%
%ADD89C,0.06512*%
%ADD90R,0.06512X0.06512*%
%ADD91C,0.12614*%
%ADD92C,0.08677*%
%ADD93C,0.07496*%
%ADD94R,0.07496X0.07496*%
%ADD95C,0.06709*%
%ADD96R,0.06709X0.06709*%
%ADD97C,0.05134*%
%ADD98C,0.04740*%
D88*
X-288500Y273700D02*
D03*
X-12100Y18600D02*
D03*
X-14000Y234800D02*
D03*
X-285900Y14200D02*
D03*
D89*
X-150400Y105700D02*
D03*
Y95700D02*
D03*
Y85700D02*
D03*
X-79700Y46300D02*
D03*
Y36300D02*
D03*
Y26300D02*
D03*
X-157300Y40700D02*
D03*
X-280800Y29200D02*
D03*
Y39200D02*
D03*
Y49200D02*
D03*
X-8800Y172700D02*
D03*
Y182700D02*
D03*
Y192700D02*
D03*
D90*
X-150400Y75700D02*
D03*
X-79700Y16300D02*
D03*
X-157300Y50700D02*
D03*
X-280800Y59200D02*
D03*
X-8800Y202700D02*
D03*
D91*
X-245700Y276500D02*
D03*
X-227300D02*
D03*
D92*
X-275500Y254650D02*
D03*
X-265657D02*
D03*
X-285343D02*
D03*
D93*
X-182200Y195500D02*
D03*
Y205500D02*
D03*
Y215500D02*
D03*
Y225500D02*
D03*
Y235500D02*
D03*
Y245500D02*
D03*
Y255500D02*
D03*
Y265500D02*
D03*
X-212200Y195500D02*
D03*
Y205500D02*
D03*
Y215500D02*
D03*
Y225500D02*
D03*
Y235500D02*
D03*
Y245500D02*
D03*
Y255500D02*
D03*
D94*
Y265500D02*
D03*
D95*
X-19100Y267800D02*
D03*
Y257800D02*
D03*
X-29100Y267800D02*
D03*
Y257800D02*
D03*
X-39100Y267800D02*
D03*
Y257800D02*
D03*
X-49100Y267800D02*
D03*
Y257800D02*
D03*
X-59100Y267800D02*
D03*
Y257800D02*
D03*
X-69100Y267800D02*
D03*
Y257800D02*
D03*
X-79100Y267800D02*
D03*
Y257800D02*
D03*
X-89100Y267800D02*
D03*
Y257800D02*
D03*
X-99100Y267800D02*
D03*
Y257800D02*
D03*
X-109100Y267800D02*
D03*
Y257800D02*
D03*
X-119100Y267800D02*
D03*
Y257800D02*
D03*
X-129100Y267800D02*
D03*
Y257800D02*
D03*
X-139100Y267800D02*
D03*
X-117194Y22700D02*
D03*
X-136406D02*
D03*
X-20194Y85700D02*
D03*
X-39406D02*
D03*
D96*
X-139100Y257800D02*
D03*
D97*
X-18800Y120700D02*
D03*
Y130700D02*
D03*
Y140700D02*
D03*
Y150700D02*
D03*
D98*
X-263516Y81062D02*
D03*
Y176338D02*
D03*
M02*
