M48
;Layer_Color=9474304
;FILE_FORMAT=2:5
INCH,LZ
;TYPE=PLATED
T1F00S00C0.01181
T2F00S00C0.01575
T3F00S00C0.02362
T4F00S00C0.02756
T5F00S00C0.03543
T6F00S00C0.03937
T7F00S00C0.05906
T8F00S00C0.12992
%
T01
X-0129921Y0001969
X-0125984
X-0122047
X-011811
X-0114173
X-0110236
X-0106299
X-0102362
X-0098425
X-0094488
X-0090551
X-0086614
X-0082677
X-007874
X-0074803
X-0070866
X-0066929
X-0062992
X-0060039Y0004921
Y0008858
X-0063976
X-0067913
X-0069882Y0014764
X-0068898Y0023622
X-0063976
X-0060039
Y0027559
Y0031496
Y0035433
Y003937
X-0064961Y0040354
X-0065945Y0044291
Y0048228
X-00413Y00522
X-00313Y00618
X-00242Y00359
X-0050197Y0031496
Y0027559
Y0023622
X-004626
X-0044291Y0020669
Y0016732
Y0012795
X-004626Y0008858
X-0050197
Y0004921
X-0047244Y0001969
X-0043307
X-003937
X-0035433
X-0031496
X-0027559
X-0023622
X-0019685
X-0015748
X-0011811
X-0007874
X-0003937
X-01214Y00559
X-0131Y00553
X-01529Y00447
X-0153543Y0001969
X-0149606
X-0145669
X-0141732
X-0137795
X-0133858
X-015748
X-0161417
X-0165354
X-0169291
X-0173228
X-0177165
X-0181102
X-0185039
X-0188976
X-0192913
X-019685
X-0200787
X-0204724
X-0208661
X-0212598
X-0216535
X-0220472
X-022441
X-0228346
X-0232283
X-0236221
X-0240158
X-0244094
X-0248031
X-0251969
X-0255906
X-0259842
X-0263779
X-0267717
X-0271654
X-027559
X-0279528
X-0283465
X-0287402
X-0291339
X-0295276
X-0299213
X-01353Y00982
X-01131Y00634
X-00694Y00662
X-00648Y01536
X-00667Y01646
X-00772Y01711
X-00802Y01942
X-00636Y01891
X-00483Y01976
X-00476Y01671
X-00349Y01703
X-00211
X-00385Y01495
X-00509Y01498
T02
X-0130754Y0033446
X-01279Y00374
X-01046Y00438
X-01133Y00532
X-01095Y00572
X-0084057Y0058457
X-00795Y00566
X-00663Y0059
X-00624Y00549
X-0071253Y0035625
Y0019877
X-0039757
X-0025947Y0023354
X-00181Y00385
X-0102749Y0019877
X-0149993
Y0035625
X-0134142Y00377
X-0165741Y0019877
X-0202434Y0017066
X-0198402Y0027302
X-0197237Y0035625
Y0051373
X-0228733
Y0035625
Y0019877
X-0275977Y0035625
X-0291725
Y0051373
Y0067121
Y0082869
Y0098617
Y0114365
Y0130113
Y0145861
Y0161609
Y0177357
Y0193105
X-0275977
X-0260229
Y0208854
X-0275977
Y0177357
Y0161609
X-0260229
X-0244481
X-0228733
X-0212985
X-0197237
Y0177357
X-0212985
X-0228733
Y0193105
X-0244481Y0177357
Y0145861
X-0228733
Y0130113
X-0212985
Y0114365
X-0197237
X-01945Y01312
X-0197237Y0145861
X-0165741
X-0149993
X-01505Y01312
X-0149993Y0208854
X-0181489Y0067121
X-0197237Y0082869
X-0212985
Y0098617
X-0228733
Y0114365
X-0244481
Y0130113
X-0260229
Y0145861
X-0275977
Y0130113
Y0114365
X-0260229
Y0098617
X-0244481
Y0082869
X-0228733
Y0067121
X-0212985
X-0244481
X-0260229
X-0275977
Y0082869
Y0098617
X-01137Y00989
X-0108752Y0099952
X-01024Y0079
X-0109647Y0066153
X-01184Y00747
X-01241
X-0126156Y0111456
X-01285Y01197
X-01304Y01312
X-0107853Y0136247
X-00904Y013
X-0071253Y0114365
X-0055505
X-0039757
X-0024009
X-00378Y01282
X-0055505Y0098617
Y0082869
X-0071253
Y0098617
X-0063747Y0071547
X-0071253Y024035
X-0087001
X-0039757
Y0224602
X-0024009
Y0271846
X-0055505
X-0102749
X-0134245
X-0149993Y0256098
Y024035
X-0165741Y0271846
X-0197237Y0256098
X-0228733
Y024035
Y0224602
X-0244481
X-0260229
Y024035
X-0275977
Y0224602
Y0271846
X-0260229
X-0291725Y0256098
T03
X-0117194Y00227
X-0136406
X-0039406Y00857
X-0020194
X-00188Y01207
Y01307
Y01407
Y01507
T04
X-02122Y01955
Y02055
Y02155
X-01822
Y02055
Y01955
Y02255
Y02355
Y02455
Y02555
Y02655
X-02122
Y02555
Y02455
Y02355
Y02255
T05
X-00797Y00163
Y00263
Y00363
Y00463
X-01573Y00507
Y00407
X-02808Y00392
Y00292
Y00492
Y00592
X-01504Y00757
Y00857
Y00957
Y01057
X-00088Y01727
Y01827
Y01927
Y02027
X-00191Y02578
Y02678
X-00291
Y02578
X-00391
Y02678
X-00491
Y02578
X-00591
Y02678
X-00691
Y02578
X-00791
Y02678
X-00891
Y02578
X-00991
Y02678
X-01091
Y02578
X-01191
Y02678
X-01291
Y02578
X-01391
Y02678
T06
X-0285343Y025465
X-02755
X-0265657
T07
X-0263516Y0081062
Y0176338
X-02457Y02765
X-02273
T08
X-00121Y00186
X-02859Y00142
X-0014Y02348
X-02885Y02737
M30
