G04 Layer_Color=8388736*
%FSLAX25Y25*%
%MOIN*%
G70*
G01*
G75*
%ADD57R,0.02362X0.02362*%
%ADD58R,0.03700X0.06300*%
%ADD59R,0.05700X0.03600*%
%ADD60R,0.08300X0.04100*%
%ADD61R,0.19000X0.04500*%
%ADD62R,0.04500X0.18800*%
%ADD63R,0.19000X0.04800*%
%ADD64R,0.04300X0.19000*%
%ADD65R,0.24100X0.05700*%
%ADD66R,0.05700X0.24000*%
%ADD67R,0.05600X0.24100*%
%ADD68R,0.24000X0.05600*%
%ADD69R,0.06312X0.03950*%
%ADD70O,0.03162X0.08674*%
%ADD71R,0.13792X0.10249*%
%ADD72O,0.05528X0.01787*%
%ADD73O,0.01787X0.05528*%
%ADD74R,0.06315X0.03953*%
%ADD75R,0.03953X0.06315*%
%ADD76R,0.03953X0.02772*%
%ADD77R,0.02772X0.03953*%
%ADD78R,0.07102X0.12614*%
%ADD79R,0.23638X0.25213*%
%ADD80R,0.18913X0.18913*%
G04:AMPARAMS|DCode=81|XSize=37.56mil|YSize=19.84mil|CornerRadius=6.97mil|HoleSize=0mil|Usage=FLASHONLY|Rotation=270.000|XOffset=0mil|YOffset=0mil|HoleType=Round|Shape=RoundedRectangle|*
%AMROUNDEDRECTD81*
21,1,0.03756,0.00591,0,0,270.0*
21,1,0.02362,0.01984,0,0,270.0*
1,1,0.01394,-0.00295,-0.01181*
1,1,0.01394,-0.00295,0.01181*
1,1,0.01394,0.00295,0.01181*
1,1,0.01394,0.00295,-0.01181*
%
%ADD81ROUNDEDRECTD81*%
G04:AMPARAMS|DCode=82|XSize=37.56mil|YSize=19.84mil|CornerRadius=6.97mil|HoleSize=0mil|Usage=FLASHONLY|Rotation=180.000|XOffset=0mil|YOffset=0mil|HoleType=Round|Shape=RoundedRectangle|*
%AMROUNDEDRECTD82*
21,1,0.03756,0.00591,0,0,180.0*
21,1,0.02362,0.01984,0,0,180.0*
1,1,0.01394,-0.01181,0.00295*
1,1,0.01394,0.01181,0.00295*
1,1,0.01394,0.01181,-0.00295*
1,1,0.01394,-0.01181,-0.00295*
%
%ADD82ROUNDEDRECTD82*%
G04:AMPARAMS|DCode=83|XSize=47.37mil|YSize=47.37mil|CornerRadius=9.9mil|HoleSize=0mil|Usage=FLASHONLY|Rotation=0.000|XOffset=0mil|YOffset=0mil|HoleType=Round|Shape=RoundedRectangle|*
%AMROUNDEDRECTD83*
21,1,0.04737,0.02756,0,0,0.0*
21,1,0.02756,0.04737,0,0,0.0*
1,1,0.01981,0.01378,-0.01378*
1,1,0.01981,-0.01378,-0.01378*
1,1,0.01981,-0.01378,0.01378*
1,1,0.01981,0.01378,0.01378*
%
%ADD83ROUNDEDRECTD83*%
%ADD84R,0.04737X0.04737*%
%ADD85R,0.03165X0.06315*%
%ADD86O,0.08283X0.03165*%
%ADD87R,0.03165X0.08283*%
G04:AMPARAMS|DCode=88|XSize=31.65mil|YSize=82.83mil|CornerRadius=14.65mil|HoleSize=0mil|Usage=FLASHONLY|Rotation=0.000|XOffset=0mil|YOffset=0mil|HoleType=Round|Shape=RoundedRectangle|*
%AMROUNDEDRECTD88*
21,1,0.03165,0.05354,0,0,0.0*
21,1,0.00236,0.08283,0,0,0.0*
1,1,0.02929,0.00118,-0.02677*
1,1,0.02929,-0.00118,-0.02677*
1,1,0.02929,-0.00118,0.02677*
1,1,0.02929,0.00118,0.02677*
%
%ADD88ROUNDEDRECTD88*%
%ADD89R,0.07102X0.04347*%
%ADD90R,0.03950X0.06312*%
%ADD91R,0.12611X0.12611*%
%ADD92C,0.12611*%
%ADD93C,0.06512*%
%ADD94R,0.06512X0.06512*%
%ADD95C,0.06706*%
%ADD96R,0.06706X0.06706*%
%ADD97C,0.08677*%
%ADD98C,0.05524*%
%ADD99R,0.12611X0.12611*%
%ADD100C,0.05134*%
%ADD101C,0.20485*%
D57*
X-42115Y62015D02*
D03*
X-31485D02*
D03*
X-42115Y51385D02*
D03*
X-31485D02*
D03*
D58*
X-109450Y37750D02*
D03*
D59*
X-146350Y49000D02*
D03*
D60*
X-32950Y30050D02*
D03*
D61*
X-36800Y68250D02*
D03*
D62*
X-25250Y56800D02*
D03*
D63*
X-36800Y45200D02*
D03*
D64*
X-48350Y56700D02*
D03*
D65*
X-121250Y80050D02*
D03*
D66*
X-138050Y63300D02*
D03*
D67*
X-104600Y63250D02*
D03*
D68*
X-121300Y46500D02*
D03*
D69*
X-182300Y185047D02*
D03*
Y178354D02*
D03*
X-172100Y185047D02*
D03*
Y178354D02*
D03*
X-162200Y185047D02*
D03*
Y178354D02*
D03*
X-282700Y78654D02*
D03*
Y85347D02*
D03*
X-272700Y78654D02*
D03*
Y85347D02*
D03*
D70*
X-147200Y167004D02*
D03*
X-152200D02*
D03*
X-157200D02*
D03*
X-162200D02*
D03*
X-167200D02*
D03*
X-172200D02*
D03*
X-177200D02*
D03*
X-182200D02*
D03*
X-187200D02*
D03*
X-192200D02*
D03*
X-147200Y129996D02*
D03*
X-152200D02*
D03*
X-157200D02*
D03*
X-162200D02*
D03*
X-167200D02*
D03*
X-172200D02*
D03*
X-177200D02*
D03*
X-182200D02*
D03*
X-187200D02*
D03*
X-192200D02*
D03*
D71*
X-275900Y162419D02*
D03*
Y189781D02*
D03*
X-238700Y189881D02*
D03*
Y162519D02*
D03*
D72*
X-138032Y52373D02*
D03*
Y54342D02*
D03*
Y56310D02*
D03*
Y58279D02*
D03*
Y60247D02*
D03*
Y62216D02*
D03*
Y64184D02*
D03*
Y66153D02*
D03*
Y68121D02*
D03*
Y70090D02*
D03*
Y72058D02*
D03*
Y74027D02*
D03*
X-104568D02*
D03*
Y72058D02*
D03*
Y70090D02*
D03*
Y68121D02*
D03*
Y66153D02*
D03*
Y64184D02*
D03*
Y62216D02*
D03*
Y60247D02*
D03*
Y58279D02*
D03*
Y56310D02*
D03*
Y54342D02*
D03*
Y52373D02*
D03*
D73*
X-132127Y79932D02*
D03*
X-130158D02*
D03*
X-128190D02*
D03*
X-126221D02*
D03*
X-124253D02*
D03*
X-122284D02*
D03*
X-120316D02*
D03*
X-118347D02*
D03*
X-116379D02*
D03*
X-114410D02*
D03*
X-112442D02*
D03*
X-110473D02*
D03*
Y46468D02*
D03*
X-112442D02*
D03*
X-114410D02*
D03*
X-116379D02*
D03*
X-118347D02*
D03*
X-120316D02*
D03*
X-122284D02*
D03*
X-124253D02*
D03*
X-126221D02*
D03*
X-128190D02*
D03*
X-130158D02*
D03*
X-132127D02*
D03*
D74*
X-31800Y23354D02*
D03*
Y30046D02*
D03*
X-147300Y47346D02*
D03*
Y40653D02*
D03*
X-33600Y88647D02*
D03*
Y81954D02*
D03*
X-220700Y57653D02*
D03*
Y64346D02*
D03*
X-6700Y81653D02*
D03*
Y88346D02*
D03*
X-201500Y146653D02*
D03*
Y153347D02*
D03*
X-131700Y115547D02*
D03*
Y108853D02*
D03*
X-140600Y115647D02*
D03*
Y108953D02*
D03*
X-147200Y58246D02*
D03*
Y51553D02*
D03*
X-55700Y86054D02*
D03*
Y92747D02*
D03*
X-85000Y100453D02*
D03*
Y107147D02*
D03*
X-96100Y81546D02*
D03*
Y74853D02*
D03*
X-144000Y87454D02*
D03*
Y94147D02*
D03*
X-68500Y156046D02*
D03*
Y149354D02*
D03*
X-58300Y184247D02*
D03*
Y177553D02*
D03*
X-88600Y122947D02*
D03*
Y116253D02*
D03*
X-88000Y144046D02*
D03*
Y137354D02*
D03*
X-58300Y172747D02*
D03*
Y166053D02*
D03*
Y160747D02*
D03*
Y154053D02*
D03*
X-65800Y108353D02*
D03*
Y115047D02*
D03*
Y104046D02*
D03*
Y97354D02*
D03*
X-56700Y64854D02*
D03*
Y71547D02*
D03*
D75*
X-246046Y115000D02*
D03*
X-239353D02*
D03*
X-17647Y46700D02*
D03*
X-10954D02*
D03*
Y54200D02*
D03*
X-17647D02*
D03*
X-37453Y30200D02*
D03*
X-44146D02*
D03*
X-119147Y37000D02*
D03*
X-112453D02*
D03*
X-87154Y65900D02*
D03*
X-93846D02*
D03*
X-34154Y134900D02*
D03*
X-40846D02*
D03*
X-107747Y37200D02*
D03*
X-101054D02*
D03*
X-136453Y7200D02*
D03*
X-143147D02*
D03*
X-117147D02*
D03*
X-110453D02*
D03*
X-31346Y112900D02*
D03*
X-24654D02*
D03*
X-43146Y102700D02*
D03*
X-36454D02*
D03*
X-48647Y175400D02*
D03*
X-41954D02*
D03*
X-48647Y167400D02*
D03*
X-41954D02*
D03*
X-246146Y103900D02*
D03*
X-239454D02*
D03*
X-21247Y134800D02*
D03*
X-14554D02*
D03*
X-10853Y61600D02*
D03*
X-17547D02*
D03*
X-121046Y139400D02*
D03*
X-114354D02*
D03*
X-75046Y184600D02*
D03*
X-68353D02*
D03*
D76*
X-49300Y19153D02*
D03*
Y13247D02*
D03*
X-54800Y49153D02*
D03*
Y43247D02*
D03*
Y3247D02*
D03*
Y9153D02*
D03*
Y33247D02*
D03*
Y39153D02*
D03*
X-60800Y49251D02*
D03*
Y43346D02*
D03*
X-54800Y13149D02*
D03*
Y19054D02*
D03*
Y23149D02*
D03*
Y29054D02*
D03*
D77*
X-59847Y13200D02*
D03*
X-65753D02*
D03*
X-65753Y19000D02*
D03*
X-59847D02*
D03*
X-30847Y38200D02*
D03*
X-36753D02*
D03*
X-41249D02*
D03*
X-47154D02*
D03*
D78*
X-233245Y89300D02*
D03*
X-251355D02*
D03*
D79*
X-242300Y60953D02*
D03*
D80*
X-36800Y56700D02*
D03*
D81*
X-29123Y44987D02*
D03*
X-31682D02*
D03*
X-34241D02*
D03*
X-36800D02*
D03*
X-39359D02*
D03*
X-41918D02*
D03*
X-44477D02*
D03*
X-29123Y68413D02*
D03*
X-31682D02*
D03*
X-34241D02*
D03*
X-36800D02*
D03*
X-39359D02*
D03*
X-41918D02*
D03*
X-44477D02*
D03*
D82*
X-25087Y49023D02*
D03*
Y51582D02*
D03*
Y54141D02*
D03*
Y56700D02*
D03*
Y59259D02*
D03*
Y61818D02*
D03*
Y64377D02*
D03*
X-48513Y64377D02*
D03*
Y61818D02*
D03*
Y59259D02*
D03*
Y56700D02*
D03*
Y54141D02*
D03*
Y51582D02*
D03*
Y49023D02*
D03*
D83*
X-25388Y88575D02*
D03*
X-15152D02*
D03*
Y81488D02*
D03*
D84*
X-25388D02*
D03*
D85*
X-88400Y129300D02*
D03*
X-78400D02*
D03*
Y151500D02*
D03*
X-88400D02*
D03*
D86*
X-74906Y113534D02*
D03*
Y108534D02*
D03*
Y103534D02*
D03*
Y98534D02*
D03*
X-56402Y113534D02*
D03*
Y108534D02*
D03*
Y103534D02*
D03*
Y98534D02*
D03*
X-68395Y161766D02*
D03*
Y166766D02*
D03*
Y171766D02*
D03*
Y176766D02*
D03*
X-86898Y161766D02*
D03*
Y166766D02*
D03*
Y171766D02*
D03*
Y176766D02*
D03*
D87*
X-106300Y128952D02*
D03*
D88*
X-111300D02*
D03*
X-116300D02*
D03*
X-121300D02*
D03*
X-106300Y104448D02*
D03*
X-111300D02*
D03*
X-116300D02*
D03*
X-121300D02*
D03*
D89*
X-39300Y182601D02*
D03*
Y195199D02*
D03*
X-38800Y160199D02*
D03*
Y147601D02*
D03*
X-48300Y195199D02*
D03*
Y182601D02*
D03*
X-47800Y160199D02*
D03*
Y147601D02*
D03*
D90*
X-73146Y120700D02*
D03*
X-66453D02*
D03*
X-73146Y91700D02*
D03*
X-66453D02*
D03*
D91*
X-166800Y233400D02*
D03*
X-101000D02*
D03*
X-35200D02*
D03*
X-244843D02*
D03*
D92*
X-206800D02*
D03*
X-186800D02*
D03*
X-141000D02*
D03*
X-121000D02*
D03*
X-75200D02*
D03*
X-55200D02*
D03*
X-264843D02*
D03*
X-16000Y179700D02*
D03*
Y199700D02*
D03*
D93*
X-160000Y103000D02*
D03*
Y93000D02*
D03*
Y83000D02*
D03*
Y40000D02*
D03*
D94*
Y73000D02*
D03*
Y50000D02*
D03*
D95*
X-211700Y104610D02*
D03*
X-272940Y64862D02*
D03*
Y54862D02*
D03*
X-282940Y64862D02*
D03*
Y54862D02*
D03*
D96*
X-211700Y118390D02*
D03*
D97*
X-250700Y131850D02*
D03*
X-260542D02*
D03*
X-240858D02*
D03*
D98*
X-117362Y22343D02*
D03*
X-136575D02*
D03*
D99*
X-16000Y159700D02*
D03*
D100*
X-12500Y121900D02*
D03*
X-22500D02*
D03*
X-32500D02*
D03*
X-42500D02*
D03*
D101*
X-289000Y236000D02*
D03*
X-12000Y15000D02*
D03*
X-13000Y236000D02*
D03*
X-286000Y17000D02*
D03*
M02*
