M48
;Layer_Color=9474304
;FILE_FORMAT=2:5
INCH,LZ
;TYPE=PLATED
T1F00S00C0.01181
T2F00S00C0.01575
T3F00S00C0.01968
T4F00S00C0.02362
T5F00S00C0.03150
T6F00S00C0.03543
T7F00S00C0.03740
T8F00S00C0.03937
T9F00S00C0.05906
T10F00S00C0.12992
%
T01
X-0122434Y001594
X-0108654
X-0094875
X-0081095
Y002972
X-0067316
X-0081095Y0043499
X-00945Y0045
X-00952Y00401
X-0094875Y002972
X-01055Y00433
X-01111Y00556
X-0122434Y0057279
X-01299Y00568
X-01274Y00379
X-00262Y00408
X-0025977Y002972
X-0012197
X-0006Y00488
X-0025977Y001594
X-0039756
X-0136Y00288
X-0135Y00407
X-0163772Y0043499
X-01717Y00527
X-01721Y00618
X-0183Y00523
X-0191331Y0043499
Y002972
X-01872Y00322
X-01771Y0035
X-0177552Y001594
X-0163772
X-0149993
X-0191331
X-0205111
Y002972
Y0043499
X-021889Y002972
Y001594
X-023267
Y002972
X-0246449
Y001594
X-0260229
Y002972
X-0274008
Y0043499
Y001594
X-0287788Y002972
Y0043499
Y0057279
Y0071058
Y0084838
Y0098617
Y0112397
Y0126177
Y0139956
Y0153736
Y0167515
Y0181295
Y0195074
Y0208854
X-0274008
X-0260229
X-023267
X-021889
X-0205111
X-0177552
Y0195074
X-0191331
Y0181295
X-0205111
Y0167515
X-021889
Y0181295
Y0195074
X-023267Y0181295
X-0246449
X-0260229
X-0274008
Y0153736
X-0260229
X-0246449
Y0139956
X-021889
X-0205111
X-0191331
X-0177552
X-0163772
X-0149993
X-0136213
Y0153736
Y0167515
Y0181295
Y0195074
X-0149993
Y0181295
Y0153736
X-0163772
X-0177552
X-0191331
X-021889
X-023267Y0126177
X-02442Y01095
X-0260229Y0112397
X-0274008
Y0126177
Y0139956
X-02827Y00895
X-0205111Y0084838
X-0191331
Y0098617
X-0205111
Y0071058
X-0191331
X-01826Y00721
X-01818Y00624
X-01717Y00697
X-0149993Y0071058
Y0084838
Y0098617
Y0112397
X-0163772
Y0098617
X-01715Y00962
X-01344Y00862
X-01309Y00714
X-0136213Y0126177
X-0122434Y0112397
X-01255Y00853
X-01204Y00737
X-01111Y00702
X-00909Y00663
X-00815Y00689
X-00761Y00721
X-00726Y00676
X-00632Y00648
X-0081095Y0084838
X-00773Y00917
X-0094875Y0098617
X-00886Y01123
X-0049966Y0108534
X-0025977Y0098617
X-0012197
Y0112397
Y0139956
X-0025977
X-0053536
X-00557Y01476
X-0081095Y0181295
Y0195074
Y0208854
X-0067316
X-0053536
X-0039756
X-0025977
X-0012197
X-0025977Y0195074
Y0181295
X-0094875
Y0195074
Y0208854
X-0108654Y0195074
Y0181295
Y0167515
Y0153736
X-0122434
Y0167515
Y0181295
Y0195074
X-0039756Y0084838
X-0018Y00736
X-00115Y00679
X-0012197Y0222633
X-0025977
Y0236413
X-0039756Y0222633
X-0067316
Y0236413
X-0081095Y0222633
X-0094875
X-0108654
X-0136213
X-0149993Y0236413
X-0163772Y0222633
X-0177552
Y0236413
X-0205111Y0222633
X-021889
Y0236413
X-023267
Y0222633
X-0260229
X-0274008
Y0236413
X-0287788Y0222633
T02
X-0129921Y0001969
X-0125984
X-0122047
X-011811
X-0114173
X-0110236
X-0106299
X-0102362
X-0098425
X-0094488
X-0090551
X-0086614
X-0082677
X-007874
X-0074803
X-0070866
X-0066929
X-0062992
X-0060039Y0004921
Y0008858
X-0063976
X-0067913
X-0069882Y0014764
X-0068898Y0023622
X-0063976
X-0060039
Y0027559
Y0031496
Y0035433
Y003937
X-0064961Y0040354
X-0065945Y0044291
Y0048228
X-00624Y00549
X-00663Y0059
X-00795Y00566
X-0084057Y0058457
X-00413Y00522
X-00313Y00618
X-00242Y00359
X-00181Y00385
X-0025947Y0023354
X-004626Y0023622
X-0050197
Y0027559
Y0031496
X-0044291Y0020669
Y0016732
Y0012795
X-004626Y0008858
X-0050197
Y0004921
X-0047244Y0001969
X-0043307
X-003937
X-0035433
X-0031496
X-0027559
X-0023622
X-0019685
X-0015748
X-0011811
X-0007874
X-0003937
X-0133858
X-0137795
X-0141732
X-0145669
X-0149606
X-0153543
X-015748
X-0161417
X-0165354
X-0169291
X-0173228
X-0177165
X-0181102
X-0185039
X-0188976
X-0192913
X-019685
X-0200787
X-0204724
X-0208661
X-0212598
X-0216535
X-0220472
X-022441
X-0228346
X-0232283
X-0236221
X-0240158
X-0244094
X-0248031
X-0251969
X-0255906
X-0259842
X-0263779
X-0267717
X-0271654
X-027559
X-0279528
X-0283465
X-0248669Y0053913
Y005785
X-0244731
Y0053913
X-0240794
Y005785
Y0061787
X-0236858
Y0053913
X-0248669Y0061787
X-0287402Y0001969
X-0291339
X-0295276
X-0299213
X-0244731Y0069661
X-0240794
X-0236858
Y0065724
X-0240794
X-0063747Y0071547
T03
X-01165Y0061
X-0209353Y0057653
T04
X-0117362Y0022343
X-0136575
X-00425Y01219
X-00325
X-00225
X-00125
T05
X-028294Y0054862
X-027294
Y0064862
X-028294
T06
X-016Y004
Y005
Y0073
Y0083
Y0093
Y0103
T07
X-02117Y010461
Y011839
T08
X-0260542Y013185
X-02507
X-0240858
T09
X-0016Y01597
Y01797
Y01997
X-00352Y02334
X-00552
X-00752
X-0101
X-0121
X-0141
X-01668
X-01868
X-02068
X-0244843
X-0264843
T10
X-0012Y0015
X-0286Y0017
X-0013Y0236
X-0289
M30
