G04 Layer_Color=16711935*
%FSLAX25Y25*%
%MOIN*%
G70*
G01*
G75*
%ADD91R,0.12611X0.12611*%
%ADD92C,0.12611*%
%ADD93C,0.06512*%
%ADD94R,0.06512X0.06512*%
%ADD95C,0.06706*%
%ADD96R,0.06706X0.06706*%
%ADD97C,0.08677*%
%ADD98C,0.05524*%
%ADD99R,0.12611X0.12611*%
%ADD100C,0.05134*%
%ADD101C,0.20485*%
D91*
X-166800Y233400D02*
D03*
X-101000D02*
D03*
X-35200D02*
D03*
X-244843D02*
D03*
D92*
X-206800D02*
D03*
X-186800D02*
D03*
X-141000D02*
D03*
X-121000D02*
D03*
X-75200D02*
D03*
X-55200D02*
D03*
X-264843D02*
D03*
X-16000Y179700D02*
D03*
Y199700D02*
D03*
D93*
X-160000Y103000D02*
D03*
Y93000D02*
D03*
Y83000D02*
D03*
Y40000D02*
D03*
D94*
Y73000D02*
D03*
Y50000D02*
D03*
D95*
X-211700Y104610D02*
D03*
X-272940Y64862D02*
D03*
Y54862D02*
D03*
X-282940Y64862D02*
D03*
Y54862D02*
D03*
D96*
X-211700Y118390D02*
D03*
D97*
X-250700Y131850D02*
D03*
X-260542D02*
D03*
X-240858D02*
D03*
D98*
X-117362Y22343D02*
D03*
X-136575D02*
D03*
D99*
X-16000Y159700D02*
D03*
D100*
X-12500Y121900D02*
D03*
X-22500D02*
D03*
X-32500D02*
D03*
X-42500D02*
D03*
D101*
X-289000Y236000D02*
D03*
X-12000Y15000D02*
D03*
X-13000Y236000D02*
D03*
X-286000Y17000D02*
D03*
M02*
